<svg width="652" height="652" xmlns="http://www.w3.org/2000/svg" xml:space="preserve" version="1.1">

 <g>
  <title>Layer 1</title>
  <path fill="#ffffff" id="svg_1" d="m65,296.8c8.3,-11.3 21.5,-18.5 36.3,-18.5l3.4,0.1l-0.1,0c27.7,0 49.3,19.4 49.3,51.6l0,91.2l-44.3,0l0,-75.6c0,-16.4 -8.5,-25.5 -22,-25.5c-12.3,0 -22.6,8.5 -22.6,26.4l0,74.7l-44.4,0l0,-204.2l44.4,0l0,79.8zm258.4,124.5l-42.6,0l0,-15.1c-8.8,11.5 -22.5,18.8 -37.9,18.8l-2.2,0l0.1,0c-37.1,0 -64.6,-32.3 -64.6,-73.4s27.5,-73.1 64.8,-73.1l1.9,0c15.4,0 29.2,7.3 37.9,18.7l0.1,0.1l0,-15l42.6,0l0,139l-0.1,0zm-102.2,-69.6c0,16.5 13.3,29.8 29.8,29.8s29.8,-13.3 29.8,-29.8s-13.3,-29.8 -29.8,-29.8s-29.8,13.3 -29.8,29.8zm279.8,-0.1c0,41 -27.6,73.4 -64.7,73.4l-2.2,0.1c-15.3,0 -28.9,-7.2 -37.5,-18.5l-0.1,-0.1l0,14.9l-42.6,0l0,-204.4l44.3,0l0,78.6c8.7,-10.5 21.8,-17.1 36.3,-17.1l2.1,0l-0.1,0c36.9,0 64.5,32.1 64.5,73.1l0,0zm-104.9,0c0,16.5 13.3,29.8 29.8,29.8c16.5,0 29.8,-13.3 29.8,-29.8s-13.3,-29.8 -29.8,-29.8c-16.5,0 -29.8,13.3 -29.8,29.8zm224.1,-71l-3.8,44.2c-6.6,-2.2 -14.2,-3.6 -22.2,-3.7l-0.1,0c-1,-0.1 -2.1,-0.2 -3.2,-0.2c-12.4,0 -22.5,10.1 -22.5,22.5c0,1 0.1,1.9 0.2,2.9l0,-0.1l0,75.2l-44.4,0l0,-139l42.6,0l0,16c7.3,-12 20.3,-19.9 35.2,-19.9l2.9,0.1l-0.1,0l0.1,0c5.5,0 10.7,0.8 15.7,2.2l-0.4,-0.2l0,0z"/>
 </g>
</svg>