<?xml version="1.0" encoding="utf-8"?>
<!-- Generator: Adobe Illustrator 19.2.1, SVG Export Plug-In . SVG Version: 6.00 Build 0)  -->
<svg version="1.1" id="layer" xmlns="http://www.w3.org/2000/svg" xmlns:xlink="http://www.w3.org/1999/xlink" x="0px" y="0px"
	 viewBox="0 0 652 652" style="enable-background:new 0 0 652 652;" xml:space="preserve">
<path d="M65,296.8c8.3-11.3,21.5-18.5,36.3-18.5l3.4,0.1l-0.1,0c27.7,0,49.3,19.4,49.3,51.6v91.2h-44.3v-75.6
	c0-16.4-8.5-25.5-22-25.5c-12.3,0-22.6,8.5-22.6,26.4v74.7H20.6V217H65L65,296.8z M323.4,421.3h-42.6v-15.1
	c-8.8,11.5-22.5,18.8-37.9,18.8l-2.2,0l0.1,0c-37.1,0-64.6-32.3-64.6-73.4s27.5-73.1,64.8-73.1l1.9,0c15.4,0,29.2,7.3,37.9,18.7
	l0.1,0.1v-15h42.6V421.3z M221.2,351.7c0,16.5,13.3,29.8,29.8,29.8s29.8-13.3,29.8-29.8s-13.3-29.8-29.8-29.8
	S221.2,335.2,221.2,351.7z M501,351.6c0,41-27.6,73.4-64.7,73.4l-2.2,0.1c-15.3,0-28.9-7.2-37.5-18.5l-0.1-0.1v14.9h-42.6V217h44.3
	v78.6c8.7-10.5,21.8-17.1,36.3-17.1l2.1,0l-0.1,0C473.4,278.5,501,310.6,501,351.6L501,351.6z M396.1,351.6
	c0,16.5,13.3,29.8,29.8,29.8c16.5,0,29.8-13.3,29.8-29.8s-13.3-29.8-29.8-29.8C409.4,321.8,396.1,335.1,396.1,351.6z M620.2,280.6
	l-3.8,44.2c-6.6-2.2-14.2-3.6-22.2-3.7h-0.1c-1-0.1-2.1-0.2-3.2-0.2c-12.4,0-22.5,10.1-22.5,22.5c0,1,0.1,1.9,0.2,2.9l0-0.1v75.2
	h-44.4v-139h42.6v16c7.3-12,20.3-19.9,35.2-19.9l2.9,0.1l-0.1,0h0.1c5.5,0,10.7,0.8,15.7,2.2L620.2,280.6L620.2,280.6z"/>
</svg>
